<?xml version="1.0" encoding="utf-8"?>
<!-- Generator: Adobe Illustrator 24.1.3, SVG Export Plug-In . SVG Version: 6.00 Build 0)  -->
<svg version="1.1" id="Layer_1" xmlns="http://www.w3.org/2000/svg" xmlns:xlink="http://www.w3.org/1999/xlink" x="0px" y="0px"
	 viewBox="0 0 3801.1 1030.1" style="enable-background:new 0 0 3801.1 1030.1;" xml:space="preserve">
<style type="text/css">
	.st0{fill-rule:evenodd;clip-rule:evenodd;fill:#F04923;}
	.st1{fill-rule:evenodd;clip-rule:evenodd;fill:#F9AE1C;}
	.st2{fill-rule:evenodd;clip-rule:evenodd;fill:#F89521;}
	.st3{fill-rule:evenodd;clip-rule:evenodd;fill:#F47422;}
	.st4{fill-rule:evenodd;clip-rule:evenodd;fill:#FFFFFF;}
	.st5{fill:#FFFFFF;}
</style>
<g>
	<g>
		<g>
			<g id="Rounded_Rectangle_1">
				<g>
					<path class="st0" d="M736.1,98.4c-83.8-83.8-219.7-83.9-303.6-0.1L16.8,513.8l415.5,415.7c83.8,83.8,219.7,83.9,303.6,0.1
						l415.7-415.5L736.1,98.4z"/>
				</g>
			</g>
			<g id="Rounded_Rectangle_1_copy">
				<g>
					<path class="st1" d="M919.7,282.2L355.6,852.8l76.7,76.7c83.8,83.8,219.7,83.9,303.6,0.1l415.7-415.5L919.7,282.2z"/>
				</g>
			</g>
			<g id="Rounded_Rectangle_1_copy_2">
				<g>
					<path class="st2" d="M925.4,287.9L736.1,98.4c-83.8-83.8-219.7-83.9-303.6-0.1L16.8,513.8l405.4,405.6
						C868.9,746.5,920,388.6,925.4,287.9z"/>
				</g>
			</g>
			<g id="Rounded_Rectangle_1_copy_4">
				<g>
					<path class="st3" d="M782.4,144.8l-46.3-46.3c-83.8-83.8-219.7-83.9-303.6-0.1L16.8,513.8L293,790.1
						C355.8,768.8,739.7,619.9,782.4,144.8z"/>
				</g>
			</g>
			<g id="Rounded_Rectangle_1_copy_3">
				<g>
					<path class="st0" d="M617.8,38.2C552.3,27.8,483,47.9,432.5,98.4L16.8,513.8l125.5,125.5C195.1,622.4,566.5,487.8,617.8,38.2z"
						/>
				</g>
			</g>
			<g id="Ellipse_1">
				<g>
					<path class="st4" d="M606.8,731.3c-105.2-16.6-185.6-106.8-185.6-215.7c0-107.3,78.2-196.6,181.4-215
						c11-16.9,23.2-32.6,36.6-47.1c-145.6,8.2-260.9,121.6-260.9,260.4c0,139.4,116.5,253.3,263.2,260.5
						C628.9,761.1,617.3,746.7,606.8,731.3z"/>
				</g>
			</g>
			<g id="Rectangle_1">
				<g>
					<path class="st4" d="M543.4,515.6v-3.4c0-51.9,42.1-93.9,93.9-93.9h69v-40.7H634c-71.9,0-130.1,58.3-130.1,130.1v14.7
						c0,71.9,58.3,130.1,130.1,130.1h83.7v-43h-80.3C585.5,609.6,543.4,567.5,543.4,515.6z"/>
				</g>
			</g>
			<g id="Ellipse_2">
				<g>
					<path class="st4" d="M707.5,253.1c-45.6,0-82.6,37-82.6,82.6c0,5.8,0.6,11.5,1.8,17h44.3c-1.9-4.7-3-9.9-3-15.3
						c0-22.2,18-40.2,40.2-40.2c22.2,0,40.2,18,40.2,40.2c0,20.5-15.3,37.3-35.1,39.8v0.3h-76.9c14.4,24.4,40.9,40.7,71.2,40.7
						c45.6,0,82.6-37,82.6-82.6C790.1,290.1,753.2,253.1,707.5,253.1z"/>
				</g>
			</g>
			<g id="Ellipse_2_copy">
				<g>
					<path class="st4" d="M721.1,609.6h-27.2c-25.9,4.3-47.7,20.6-59.5,43h69.7v0.2c1.3-0.1,2.6-0.2,4-0.2c22.2,0,40.2,18,40.2,40.2
						s-18,40.2-40.2,40.2c-22.2,0-40.2-18-40.2-40.2c0-5,0.9-9.7,2.6-14.1h-44.6c-0.6,4.1-0.9,8.2-0.9,12.4
						c0,45.6,37,82.6,82.6,82.6s82.6-37,82.6-82.6C790.1,650,760.3,616,721.1,609.6z"/>
				</g>
			</g>
		</g>
		<g>
			<path class="st5" d="M1452.7,861.4c-79.2,0-137.7-21.5-175.2-64.6c-37.6-43-56.4-101.8-56.4-176.2c0-165.3,79.9-248,239.8-248
				c32.1,0,60.8,6.1,86.1,18.4c29.4,15.7,44.1,46.8,44.1,93.2c0,14.3-2.7,23.1-8.2,26.1c-5.5,3.1-17.4,1.9-35.9-3.6
				c-25.3-8.9-49.9-13.3-73.8-13.3c-78.6,0-117.8,41.7-117.8,125c0,81.3,42.3,121.9,127.1,121.9c18.4,0,43.4-4.1,74.8-12.3
				c19.8-4.8,31.8-6.5,35.9-5.1c4.1,1.4,6.1,8.2,6.1,20.5c0,45.8-16.7,77.9-50.2,96.3C1523.1,854.2,1491,861.4,1452.7,861.4z"/>
			<path class="st5" d="M1667.9,193.3c0-21.2,7-38.4,21-51.7c14-13.3,31.9-20,53.8-20c21.9,0,39.8,6.7,53.8,20
				c14,13.3,21,30.6,21,51.7c0,21.9-7,39.4-21,52.8c-14,13.3-31.9,20-53.8,20c-21.9,0-39.8-6.7-53.8-20
				C1674.9,232.8,1667.9,215.2,1667.9,193.3z M1701.7,379.8c36.9,0,63.4,8.4,79.4,25.1c16,16.7,24.1,43.9,24.1,81.5V803
				c0,21.9-2.9,35.9-8.7,42c-5.8,6.1-19.3,9.2-40.5,9.2h-29.7c-20.5,0-33.8-3.2-40-9.7c-6.1-6.5-9.2-20.3-9.2-41.5V424.9
				c0-19.1,1.2-31.4,3.6-36.9C1683.1,382.6,1690.1,379.8,1701.7,379.8z"/>
			<path class="st5" d="M2246.8,109.3c36.9,0,63.4,8.4,79.4,25.1c16,16.7,24.1,43.9,24.1,81.5v600.4c0,19.1-1.2,31.4-3.6,36.9
				c-2.4,5.5-9.4,8.2-21,8.2c-49.9,0-81.6-16.4-95.3-49.2c-32.1,33.5-76.2,50.2-132.2,50.2c-63.5,0-113.7-22.2-150.6-66.6
				c-36.9-44.4-55.3-103.1-55.3-176.2c0-73.1,18.6-132.3,55.8-177.8c37.2-45.4,86.9-68.1,149.1-68.1c49.9,0,91.5,15,125,45.1V154.4
				c0-19.1,1.2-31.4,3.6-36.9C2228.2,112,2235.2,109.3,2246.8,109.3z M2206.3,706.2c17.4-23.6,26.1-52.8,26.1-87.6
				s-8.7-64.2-26.1-88.1c-17.4-23.9-42.5-35.9-75.3-35.9s-57.7,12-74.8,35.9c-17.1,23.9-25.6,53.3-25.6,88.1s8.5,64,25.6,87.6
				c17.1,23.6,42,35.4,74.8,35.4S2188.9,729.7,2206.3,706.2z"/>
			<path class="st5" d="M2424.1,708.7c0-49.2,13.8-84.9,41.5-107.1c27.7-22.2,73.6-33.3,137.8-33.3c23.2,0,56,2.7,98.4,8.2v-13.3
				c0-52.6-33.5-78.9-100.4-78.9c-31.4,0-65.6,3.8-102.5,11.3c-18.4,3.4-29.7,4.1-33.8,2c-4.1-2-6.1-9.2-6.1-21.5
				c0-47.1,18.1-76.8,54.3-89.1c28.7-9.6,66.6-14.3,113.7-14.3c15,0,29.7,0.9,44.1,2.6c14.3,1.7,31.6,6,51.7,12.8
				c20.1,6.8,37.7,15.9,52.8,27.2c15,11.3,27.8,28,38.4,50.2c10.6,22.2,15.9,48,15.9,77.4v270.5c0,19.1-1.2,31.4-3.6,36.9
				c-2.4,5.5-9.4,8.2-21,8.2c-47.8,0-78.9-15-93.2-45.1c-32.8,31.4-76.5,47.1-131.2,47.1C2476.3,860.4,2424.1,809.8,2424.1,708.7z
				 M2701.7,726.1v-52.3c-18.4-3.4-41-5.1-67.6-5.1c-29.4,0-50.4,2.7-63,8.2c-12.6,5.5-19,16.4-19,32.8c0,30.7,22.5,46.1,67.6,46.1
				C2651.2,755.9,2678.5,746,2701.7,726.1z"/>
			<path class="st5" d="M2899.5,708.7c0-49.2,13.8-84.9,41.5-107.1c27.7-22.2,73.6-33.3,137.8-33.3c23.2,0,56,2.7,98.4,8.2v-13.3
				c0-52.6-33.5-78.9-100.4-78.9c-31.4,0-65.6,3.8-102.5,11.3c-18.4,3.4-29.7,4.1-33.8,2c-4.1-2-6.2-9.2-6.2-21.5
				c0-47.1,18.1-76.8,54.3-89.1c28.7-9.6,66.6-14.3,113.7-14.3c15,0,29.7,0.9,44.1,2.6c14.3,1.7,31.6,6,51.7,12.8
				c20.1,6.8,37.7,15.9,52.8,27.2c15,11.3,27.8,28,38.4,50.2c10.6,22.2,15.9,48,15.9,77.4v270.5c0,19.1-1.2,31.4-3.6,36.9
				c-2.4,5.5-9.4,8.2-21,8.2c-47.8,0-78.9-15-93.2-45.1c-32.8,31.4-76.5,47.1-131.2,47.1C2951.7,860.4,2899.5,809.8,2899.5,708.7z
				 M3177.2,726.1v-52.3c-18.4-3.4-41-5.1-67.6-5.1c-29.4,0-50.4,2.7-63,8.2c-12.6,5.5-19,16.4-19,32.8c0,30.7,22.5,46.1,67.6,46.1
				C3126.6,755.9,3153.9,746,3177.2,726.1z"/>
			<path class="st5" d="M3595.2,481.3c-51.9,0-77.9,10.9-77.9,32.8c0,12.3,8.4,21.9,25.1,28.7c16.7,6.8,37,12.8,61,17.9
				c23.9,5.1,48,12,72.2,20.5c24.2,8.5,44.7,23.6,61.5,45.1c16.7,21.5,25.1,49.4,25.1,83.5c0,31.4-5.8,57.6-17.4,78.4
				c-11.6,20.8-28,36.2-49.2,46.1c-21.2,9.9-42.4,16.7-63.5,20.5c-21.2,3.7-45.4,5.6-72.7,5.6c-42.4,0-79.6-5.1-111.7-15.4
				c-40.3-11.6-60.5-43-60.5-94.3c0-19.8,4.8-29.7,14.3-29.7c6.8,0,16.4,2.4,28.7,7.2c46.4,17.8,88.8,26.6,127.1,26.6
				c55.3,0,83-14,83-42c0-13.7-8.4-24.1-25.1-31.3c-16.7-7.2-37.1-13.1-61-17.9c-23.9-4.8-48-11.1-72.2-19
				c-24.3-7.8-44.7-22-61.5-42.5c-16.7-20.5-25.1-47.1-25.1-79.9c0-99.7,65.2-149.6,195.7-149.6c32.1,0,62.8,4.8,92.2,14.3
				c43,14.3,64.5,42.4,64.5,84c0,15-2.2,23.7-6.7,26.1c-4.5,2.4-15.9,1.9-34.3-1.5C3662.5,486,3625.3,481.3,3595.2,481.3z"/>
		</g>
		<g>
			<path class="st5" d="M1152.6,953.1c0,23.5-18.4,41.9-42.4,41.9c-23.7,0-42.6-18.4-42.6-41.9c0-23,18.9-41.4,42.6-41.4
				C1134.2,911.7,1152.6,930.1,1152.6,953.1z M1078.2,953.1c0,18.4,13.6,33,32.3,33c18.2,0,31.5-14.6,31.5-32.8
				c0-18.4-13.4-33.3-31.8-33.3S1078.2,934.9,1078.2,953.1z M1103.6,974.8h-9.6v-41.4c3.8-0.8,9.1-1.3,15.9-1.3
				c7.8,0,11.4,1.3,14.4,3c2.3,1.8,4,5,4,9.1c0,4.5-3.5,8.1-8.6,9.6v0.5c4,1.5,6.3,4.5,7.6,10.1c1.3,6.3,2,8.8,3,10.3H1120
				c-1.3-1.5-2-5.3-3.3-10.1c-0.8-4.5-3.3-6.6-8.6-6.6h-4.5V974.8z M1103.9,951.3h4.5c5.3,0,9.6-1.8,9.6-6.1c0-3.8-2.8-6.3-8.8-6.3
				c-2.5,0-4.3,0.3-5.3,0.5V951.3z"/>
		</g>
	</g>
</g>
</svg>
